#!OML:ASF X:\für Bonn\!DataBase\2005_08_10_Bjorn_Final\c3d\bjorn.ASF
:FULLY-SPECIFIED
:DEGREES
46
root 29.1067 18.0353 -5.39459 186.924 -16.0198 -174.288
lowerback 3.10701 -1.5634 2.16304
upperback 10.4063 -3.18247 -0.59825
thorax 9.09825 -1.79035 -2.05735
lowerneck -4.14534 8.255 1.82432
upperneck -8.92818 10.3193 -6.06583
head -1.6781 5.03458 -2.20544
rclavicle -2.06736e-014 5.56597e-014
rhumerus -54.2908 0.275022 -90.2239
rradius 49.7259
rwrist -2.64624
rhand -23.8591 24.7864
rfingers 7.12502
rthumb 2.61339 -5.17737
lclavicle -2.06736e-014 5.56597e-014
lhumerus -14.5247 -30.2568 80.5827
lradius 97.6872
lwrist -0.0452355
lhand -35.6236 -19.1281
lfingers 7.12502
lthumb -8.7466 10.6707
rfemur -59.6662 -5.60773 15.5555
rtibia 62.0912
rfoot -7.2278 17.2823
rtoes -23.3724
lfemur 9.26224 -3.71178 -20.226
ltibia 27.1002
lfoot -19.729 -7.19182
ltoes -17.8855
47
root 29.0323 18.108 -5.62811 187.236 -16.4122 -173.946
lowerback 2.40212 -1.80406 2.37026
upperback 10.1958 -3.47087 -0.439539
thorax 9.26254 -1.89237 -2.04335
lowerneck -3.71917 8.38681 2.06629
upperneck -8.79532 10.5195 -6.22547
head -1.67864 5.14687 -2.31084
rclavicle -2.06736e-014 -3.10104e-014
rhumerus -55.248 0.515116 -89.8833
rradius 49.8917
rwrist -2.5134
rhand -24.0524 25.1984
rfingers 7.12502
rthumb 2.42676 -4.76758
lclavicle -2.06736e-014 -3.10104e-014
lhumerus -13.8002 -30.5886 79.7879
lradius 98.7065
lwrist 0.252362
lhand -36.0107 -19.4517
lfingers 7.12502
lthumb -9.12012 10.3311
rfemur -60.1473 -5.75883 16.0145
rtibia 61.3053
rfoot -5.93736 17.7717
rtoes -24.6422
lfemur 9.99089 -3.56957 -19.5666
ltibia 25.7794
lfoot -17.5917 -7.97917
ltoes -18.7273
48
root 28.9543 18.1781 -5.86601 187.487 -16.8283 -173.63
lowerback 1.81399 -2.0709 2.59818
upperback 9.95254 -3.79429 -0.293205
thorax 9.31828 -2.01206 -2.05165
lowerneck -3.32082 8.52511 2.29524
upperneck -8.53862 10.7394 -6.39184
head -1.63308 5.27108 -2.41024
rclavicle -5.56597e-015 1.43125e-014
rhumerus -56.0697 0.65825 -89.6041
rradius 49.9928
rwrist -2.69058
rhand -24.2471 25.4598
rfingers 7.12502
rthumb 2.23869 -4.50825
lclavicle -5.56597e-015 1.43125e-014
lhumerus -13.3775 -30.8268 79.2764
lradius 99.5234
lwrist 0.270561
lhand -36.2813 -19.9138
lfingers 7.12502
lthumb -9.38126 9.85744
rfemur -60.4462 -5.98045 16.4959
rtibia 60.4903
rfoot -4.66843 18.4222
rtoes -25.8284
lfemur 10.754 -3.43172 -18.9365
ltibia 24.4979
lfoot -15.3652 -8.69434
ltoes -19.9533
49
root 28.8752 18.2491 -6.10848 187.71 -17.2304 -173.338
lowerback 1.30849 -2.32715 2.79995
upperback 9.69578 -4.10515 -0.148048
thorax 9.31203 -2.13067 -2.04389
lowerneck -2.99778 8.66206 2.49161
upperneck -8.15586 10.9677 -6.5205
head -1.5366 5.39953 -2.48321
rclavicle 1.11319e-014 1.74931e-014
rhumerus -56.9923 0.823589 -89.3896
rradius 50.3451
rwrist -3.1779
rhand -24.476 25.2743
rfingers 7.12502
rthumb 2.0176 -4.6959
lclavicle 1.11319e-014 1.74931e-014
lhumerus -13.1325 -31.0555 78.7255
lradius 100.363
lwrist 0.23262
lhand -36.6053 -20.278
lfingers 7.12502
lthumb -9.69382 9.47894
rfemur -60.5884 -6.17403 16.9817
rtibia 59.6513
rfoot -3.43928 19.0365
rtoes -26.6183
lfemur 11.5235 -3.2937 -18.3439
ltibia 23.2485
lfoot -13.029 -9.32118
ltoes -20.995
50
root 28.7921 18.3177 -6.35379 187.867 -17.5894 -173.035
lowerback 0.902849 -2.57595 3.06739
upperback 9.40707 -4.40498 -0.0217865
thorax 9.20602 -2.24112 -2.08614
lowerneck -2.70119 8.80989 2.63484
upperneck -7.60985 11.2258 -6.60484
head -1.3867 5.54498 -2.52489
rclavicle -2.3059e-014 -7.95139e-015
rhumerus -57.9258 0.89673 -89.1462
rradius 50.6477
rwrist -3.31139
rhand -24.9421 25.1475
rfingers 7.12502
rthumb 1.56744 -4.82649
lclavicle -2.3059e-014 -7.95139e-015
lhumerus -13.0233 -31.2568 78.3408
lradius 101.015
lwrist 0.0512606
lhand -36.9721 -20.6411
lfingers 7.12502
lthumb -10.0477 9.09908
rfemur -60.5462 -6.35578 17.5027
rtibia 58.7865
rfoot -2.2639 19.6908
rtoes -27.3509
lfemur 12.3463 -3.15939 -17.7852
ltibia 22.0235
lfoot -10.6012 -9.82905
ltoes -22.0082
51
root 28.7083 18.3834 -6.60171 187.956 -17.9383 -172.753
lowerback 0.530269 -2.81631 3.32831
upperback 9.16655 -4.70598 0.0940321
thorax 9.13339 -2.35624 -2.13836
lowerneck -2.54083 8.95543 2.69213
upperneck -6.95441 11.4839 -6.64164
head -1.18628 5.688 -2.52503
rclavicle -3.06128e-014 2.22639e-014
rhumerus -58.8097 0.961242 -88.9181
rradius 51.0026
rwrist -3.32838
rhand -25.4366 25.6435
rfingers 7.12502
rthumb 1.08992 -4.33343
lclavicle -3.06128e-014 2.22639e-014
lhumerus -13.0602 -31.4501 78.0744
lradius 101.627
lwrist -0.375854
lhand -37.4024 -21.0294
lfingers 7.12502
lthumb -10.4629 8.69018
rfemur -60.3141 -6.53485 18.0153
rtibia 57.9168
rfoot -1.11506 20.3041
rtoes -27.8562
lfemur 13.2393 -3.10951 -17.293
ltibia 20.8045
lfoot -8.05138 -10.1564
ltoes -22.3986
52
root 28.6221 18.4445 -6.85143 187.975 -18.2768 -172.473
lowerback 0.225352 -3.04383 3.61309
upperback 8.92805 -4.99334 0.205673
thorax 9.02082 -2.46625 -2.20399
lowerneck -2.33121 9.09402 2.82733
upperneck -6.25562 11.7335 -6.70902
head -0.97505 5.82541 -2.54899
rclavicle -2.90226e-014 -1.03368e-014
rhumerus -59.7069 1.17025 -88.7136
rradius 51.6527
rwrist -3.9008
rhand -25.4871 26.3018
rfingers 7.12502
rthumb 1.04116 -3.67536
lclavicle -2.90226e-014 -1.03368e-014
lhumerus -12.9909 -31.6899 77.6654
lradius 102.019
lwrist -0.932288
lhand -38.0223 -21.3042
lfingers 7.12502
lthumb -11.0608 8.38439
rfemur -59.8893 -6.70185 18.5275
rtibia 57.0447
rfoot 0.0465958 20.7298
rtoes -28.4289
lfemur 14.1837 -3.19401 -16.8665
ltibia 19.6451
lfoot -5.31217 -10.2144
ltoes -22.0735
53
root 28.5347 18.5012 -7.10329 187.988 -18.5791 -172.186
lowerback -0.122585 -3.25374 3.89864
upperback 8.72541 -5.26977 0.329045
thorax 8.97437 -2.5723 -2.26367
lowerneck -2.2455 9.24627 2.95618
upperneck -5.4787 11.9985 -6.79476
head -0.71669 5.96606 -2.5674
rclavicle 2.14687e-014 2.78299e-014
rhumerus -60.4754 1.36666 -88.5414
rradius 52.3519
rwrist -4.11756
rhand -25.5764 26.6525
rfingers 7.12502
rthumb 0.954865 -3.3251
lclavicle 2.14687e-014 2.78299e-014
lhumerus -12.962 -31.8788 77.3483
lradius 102.227
lwrist -1.71801
lhand -38.6534 -21.5217
lfingers 7.12502
lthumb -11.6695 8.13328
rfemur -59.3679 -6.83558 19.044
rtibia 56.1843
rfoot 1.31946 21.1088
rtoes -28.7875
lfemur 15.0838 -3.25985 -16.467
ltibia 18.5914
lfoot -2.48748 -10.0476
ltoes -21.7421
54
root 28.4466 18.5531 -7.35591 187.98 -18.8931 -171.929
lowerback -0.3657 -3.46478 4.15928
upperback 8.44008 -5.53111 0.459001
thorax 8.77627 -2.67646 -2.28946
lowerneck -1.93888 9.37918 3.11297
upperneck -4.76184 12.2376 -6.89806
head -0.513061 6.09677 -2.61198
rclavicle 5.28767e-014 6.36111e-015
rhumerus -61.2607 1.70075 -88.391
rradius 53.0377
rwrist -4.21555
rhand -25.7237 26.7448
rfingers 7.12502
rthumb 0.812644 -3.23336
lclavicle 5.28767e-014 6.36111e-015
lhumerus -13.2579 -32.1729 77.18
lradius 102.396
lwrist -2.34406
lhand -39.2878 -21.5939
lfingers 7.12502
lthumb -12.2812 8.02543
rfemur -58.7208 -6.9564 19.5061
rtibia 55.329
rfoot 2.71242 21.4059
rtoes -28.3493
lfemur 15.9022 -3.41801 -16.1471
ltibia 17.7435
lfoot 0.29327 -9.58005
ltoes -21.2395
55
root 28.3583 18.5993 -7.60963 187.921 -19.173 -171.661
lowerback -0.628939 -3.64527 4.36659
upperback 8.23656 -5.77455 0.652622
thorax 8.69334 -2.78087 -2.22582
lowerneck -1.73192 9.5174 3.16665
upperneck -4.09617 12.473 -7.02554
head -0.313322 6.22202 -2.64377
rclavicle -2.38542e-015 7.95139e-016
rhumerus -61.962 2.19321 -88.2286
rradius 53.8315
rwrist -4.4907
rhand -25.9456 26.8612
rfingers 7.12502
rthumb 0.598284 -3.11773
lclavicle -2.38542e-015 7.95139e-016
lhumerus -13.3879 -32.4421 77.1917
lradius 102.366
lwrist -2.90889
lhand -39.844 -21.7532
lfingers 7.12502
lthumb -12.8174 7.83329
rfemur -57.9534 -7.02836 19.9527
rtibia 54.4998
rfoot 4.16397 21.623
rtoes -27.3498
lfemur 16.6339 -3.59423 -15.8548
ltibia 17.1815
lfoot 2.96291 -8.94896
ltoes -20.3826
56
root 28.269 18.6397 -7.8628 187.879 -19.4619 -171.42
lowerback -0.98712 -3.81179 4.53215
upperback 8.12077 -6.02014 0.848786
thorax 8.76809 -2.88781 -2.15172
lowerneck -1.61606 9.6494 3.14745
upperneck -3.56359 12.6878 -7.09551
head -0.149715 6.33299 -2.64536
rclavicle 2.38542e-014 -1.51076e-014
rhumerus -62.4409 2.71557 -88.0757
rradius 54.7662
rwrist -4.60168
rhand -26.0684 26.4783
rfingers 7.12502
rthumb 0.479688 -3.50088
lclavicle 2.38542e-014 -1.51076e-014
lhumerus -13.3618 -32.695 77.1342
lradius 102.321
lwrist -3.3699
lhand -40.3461 -21.9216
lfingers 7.12502
lthumb -13.3014 7.63391
rfemur -57.1172 -7.08607 20.3278
rtibia 53.6922
rfoot 5.55973 21.6714
rtoes -25.8335
lfemur 17.1625 -3.86343 -15.642
ltibia 16.9898
lfoot 5.39483 -8.13635
ltoes -19.8044
